<?xml version="1.0" encoding="UTF-8"?>
<!DOCTYPE svg PUBLIC "-//W3C//DTD SVG 1.1//EN" "http://www.w3.org/Graphics/SVG/1.1/DTD/svg11.dtd">
<!-- Creator: CorelDRAW -->
<svg xmlns="http://www.w3.org/2000/svg" xml:space="preserve" width="1024px" height="1024px" version="1.1" style="shape-rendering:geometricPrecision; text-rendering:geometricPrecision; image-rendering:optimizeQuality; fill-rule:evenodd; clip-rule:evenodd"
viewBox="0 0 19714 19714"
 xmlns:xlink="http://www.w3.org/1999/xlink"
 xmlns:xodm="http://www.corel.com/coreldraw/odm/2003">
 <defs>
  <style type="text/css">
   <![CDATA[
    .fil0 {fill:#13213B}
    .fil3 {fill:#4D6483}
    .fil7 {fill:#715251}
    .fil4 {fill:#B26E4F}
    .fil6 {fill:#BA8473}
    .fil5 {fill:#D17A50}
    .fil2 {fill:#E47232}
    .fil1 {fill:#EEEFE2}
    .fil8 {fill:#FEFEFE}
   ]]>
  </style>
 </defs>
 <g id="Layer_x0020_1">
  <metadata id="CorelCorpID_0Corel-Layer"/>
  <g id="AI-generated_x0020_vector">
   <g>
    <path class="fil0" d="M0 9234l0 1092c34,74 83,661 99,798 81,668 295,1604 515,2201 539,1456 1489,2729 2581,3752 218,204 490,456 716,633 2158,1687 5501,2388 8195,1711 3625,-910 6432,-3655 7284,-7194 663,-2751 131,-5703 -1427,-7954 -1552,-2242 -3917,-3776 -6701,-4157 -173,-24 -676,-45 -787,-116l-1239 0c-62,33 -856,116 -1007,140 -949,147 -1804,423 -2654,814 -693,319 -1494,845 -2092,1374 -1778,1573 -2978,3480 -3342,5902 -24,160 -99,932 -141,1004z"/>
    <g>
     <path class="fil1" d="M15883 4518c-114,55 -906,989 -1007,1155 -145,238 172,597 472,202l820 -988c109,-184 -69,-474 -285,-369z"/>
     <path class="fil1" d="M14095 2980c-191,93 -996,1107 -1031,1171 -93,169 125,618 479,189l830 -998c104,-185 -81,-458 -278,-362z"/>
     <path class="fil1" d="M13609 4640c114,90 251,125 360,197 -67,221 -184,195 -403,257 -96,332 39,218 -582,825 -73,72 -161,160 -237,243l-907 996 -1262 -1 4 679 4002 -2 1 -668 -1710 -10c17,-58 546,-753 592,-812 101,-131 185,-258 295,-399 374,-485 324,-211 410,-306 83,-154 -28,-331 210,-433 143,49 160,204 250,336 158,-16 1030,-954 981,-1192 -228,-133 -4,130 -575,-347 -346,-289 -245,-154 -425,-518 -156,-8 -358,298 -548,530 -97,118 -447,504 -456,625z"/>
     <path class="fil1" d="M7422 11682l-2298 -2c-33,1081 768,2328 1736,3023 326,234 652,402 1039,558 2951,1191 6574,-490 6499,-3364 -92,-3487 -5155,-3155 -6046,-4539 -543,-845 359,-1997 2203,-1549 634,154 845,559 1145,988 39,-15 1364,-1433 1394,-1503 -167,-230 -747,-580 -1138,-731 -1758,-677 -4174,-561 -5454,765 -1181,1224 -1054,3153 288,4247 123,99 412,290 555,368 1781,976 4041,1067 4157,2443 123,1447 -2381,1896 -3441,538 -415,-531 -405,-561 -639,-1242z"/>
    </g>
    <g>
     <path class="fil2" d="M6492 4516c-33,119 -42,21 -73,126 70,-5 102,-55 174,-90 70,-34 125,-82 198,-96 694,-387 1233,-671 2071,-829 740,-139 1947,-156 2652,47l-129 435c164,-3 756,-124 860,-181 112,-113 288,-38 449,-174 -123,-192 -383,-447 -401,-557 -17,-84 -364,-478 -432,-498 -67,120 -113,299 -150,448 -516,-1 -894,-129 -1601,-81 -1232,82 -2765,543 -3600,1421 -22,28 -8,6 -18,29z"/>
     <path class="fil2" d="M12935 15292c-541,299 -861,509 -1478,689 -2649,773 -4486,-752 -4814,-777 -150,-11 -400,-2 -550,14 1,156 780,1482 896,1640l379 -725c90,12 860,254 1253,330 925,178 1938,180 2831,-121 202,-68 1007,-389 1062,-514 56,-127 814,-548 883,-807 -99,27 -61,20 -127,81 -64,57 -262,173 -335,190z"/>
    </g>
    <g>
     <path class="fil3" d="M8916 7434c-22,-111 -276,-406 -40,-754 245,-361 1167,-353 1602,-254 429,98 460,175 742,288 -363,-806 -2277,-935 -2601,-155 -152,369 6,782 297,875z"/>
     <path class="fil3" d="M8497 12812c143,342 1306,882 2219,311 389,-242 527,-608 297,-1012 -573,-1006 -3191,-969 -4767,-2531 -74,-73 -115,-141 -181,-212 -81,154 616,893 713,969 1326,1045 3553,1175 3921,1931 239,489 -400,890 -1131,847 -463,-27 -727,-173 -1071,-303z"/>
    </g>
    <path class="fil4" d="M13489 14890c80,-12 26,-2 56,11l-12 85c126,-85 337,-478 404,-489l-44 -58c-76,84 -358,332 -404,451z"/>
    <g>
     <path class="fil5" d="M6492 4516c-72,43 -177,158 -213,223l-28 91 122 -53 418 -321c-73,14 -128,62 -198,96 -72,35 -104,85 -174,90 31,-105 40,-7 73,-126z"/>
     <path class="fil5" d="M12245 3928l535 -109c-23,-87 -337,-482 -438,-585 -42,-42 -17,-17 -49,-37 18,110 278,365 401,557 -161,136 -337,61 -449,174z"/>
     <path class="fil5" d="M12935 15292c73,-17 271,-133 335,-190 66,-61 28,-54 127,-81 -69,259 -827,680 -883,807 215,-80 976,-752 1019,-842l12 -85c-30,-13 24,-23 -56,-11 -79,56 -515,349 -554,402z"/>
    </g>
    <path class="fil6" d="M6373 4777l-122 53 28 -91c-75,43 -112,123 -175,190 -33,35 -139,176 -149,208 30,-7 393,-326 418,-360z"/>
    <path class="fil7" d="M13893 14439l44 58c44,-77 64,-91 81,-175 -106,25 -76,41 -125,117z"/>
   </g>
   <g>
    <path class="fil8" d="M0 9234c42,-72 117,-844 141,-1004 364,-2422 1564,-4329 3342,-5902 598,-529 1399,-1055 2092,-1374 850,-391 1705,-667 2654,-814 151,-24 945,-107 1007,-140l-9236 0 0 9234z"/>
    <path class="fil8" d="M0 10326l0 9388 19714 0 0 -19714 -9239 0c111,71 614,92 787,116 2784,381 5149,1915 6701,4157 1558,2251 2090,5203 1427,7954 -852,3539 -3659,6284 -7284,7194 -2694,677 -6037,-24 -8195,-1711 -226,-177 -498,-429 -716,-633 -1092,-1023 -2042,-2296 -2581,-3752 -220,-597 -434,-1533 -515,-2201 -16,-137 -65,-724 -99,-798z"/>
   </g>
  </g>
 </g>
</svg>
